<svg width="739" height="202" viewBox="0 0 739 202" fill="none" xmlns="http://www.w3.org/2000/svg">
<path d="M133.145 191C132.716 191 132.342 190.841 132.025 190.524C131.708 190.207 131.549 189.833 131.549 189.404V172.156C131.549 171.727 131.708 171.353 132.025 171.036C132.342 170.719 132.716 170.56 133.145 170.56H142.749C143.178 170.56 143.552 170.719 143.869 171.036C144.186 171.353 144.345 171.727 144.345 172.156V172.8C144.345 173.229 144.186 173.603 143.869 173.92C143.552 174.237 143.178 174.396 142.749 174.396H136.561C136.393 174.396 136.309 174.471 136.309 174.62V178.792C136.309 178.96 136.393 179.044 136.561 179.044H142.189C142.618 179.044 142.992 179.203 143.309 179.52C143.626 179.819 143.785 180.183 143.785 180.612V181.06C143.785 181.489 143.626 181.863 143.309 182.18C142.992 182.479 142.618 182.628 142.189 182.628H136.561C136.393 182.628 136.309 182.712 136.309 182.88V189.404C136.309 189.833 136.15 190.207 135.833 190.524C135.534 190.841 135.17 191 134.741 191H133.145ZM165.114 183.58C165.114 188.713 162.501 191.28 157.274 191.28C152.047 191.28 149.434 188.713 149.434 183.58V172.156C149.434 171.727 149.593 171.353 149.91 171.036C150.227 170.719 150.601 170.56 151.03 170.56H152.654C153.083 170.56 153.457 170.719 153.774 171.036C154.091 171.353 154.25 171.727 154.25 172.156V183.916C154.25 185.185 154.493 186.091 154.978 186.632C155.463 187.173 156.247 187.444 157.33 187.444C158.413 187.444 159.197 187.173 159.682 186.632C160.167 186.091 160.41 185.185 160.41 183.916V172.156C160.41 171.727 160.569 171.353 160.886 171.036C161.203 170.719 161.577 170.56 162.006 170.56H163.518C163.947 170.56 164.321 170.719 164.638 171.036C164.955 171.353 165.114 171.727 165.114 172.156V183.58ZM172.237 191C171.807 191 171.434 190.841 171.117 190.524C170.799 190.207 170.641 189.833 170.641 189.404V172.156C170.641 171.727 170.799 171.353 171.117 171.036C171.434 170.719 171.807 170.56 172.237 170.56H173.609C174.673 170.56 175.447 171.027 175.933 171.96L181.813 183.076C181.813 183.095 181.822 183.104 181.841 183.104C181.859 183.104 181.869 183.095 181.869 183.076V172.156C181.869 171.727 182.027 171.353 182.345 171.036C182.662 170.719 183.035 170.56 183.465 170.56H184.837C185.266 170.56 185.639 170.719 185.957 171.036C186.274 171.353 186.433 171.727 186.433 172.156V189.404C186.433 189.833 186.274 190.207 185.957 190.524C185.639 190.841 185.266 191 184.837 191H183.465C182.401 191 181.626 190.533 181.141 189.6L175.261 178.484C175.261 178.465 175.251 178.456 175.233 178.456C175.214 178.456 175.205 178.465 175.205 178.484V189.404C175.205 189.833 175.046 190.207 174.729 190.524C174.411 190.841 174.038 191 173.609 191H172.237ZM303.473 174.312V179.688C303.473 179.856 303.547 179.94 303.697 179.94H305.041C306.347 179.94 307.346 179.669 308.037 179.128C308.727 178.568 309.073 177.793 309.073 176.804C309.073 174.863 307.794 173.892 305.237 173.892C304.658 173.892 304.154 173.929 303.725 174.004C303.557 174.041 303.473 174.144 303.473 174.312ZM300.393 191C299.963 191 299.59 190.841 299.273 190.524C298.955 190.207 298.797 189.833 298.797 189.404V172.296C298.797 171.829 298.946 171.428 299.245 171.092C299.562 170.756 299.945 170.569 300.393 170.532C302.054 170.364 303.762 170.28 305.517 170.28C308.317 170.28 310.398 170.812 311.761 171.876C313.142 172.921 313.833 174.415 313.833 176.356C313.833 177.607 313.469 178.736 312.741 179.744C312.013 180.733 311.061 181.443 309.885 181.872C309.866 181.872 309.857 181.881 309.857 181.9C309.857 181.937 309.875 181.956 309.913 181.956C310.827 182.479 311.602 183.58 312.237 185.26L313.833 189.516C313.963 189.871 313.917 190.207 313.693 190.524C313.469 190.841 313.17 191 312.797 191H311.089C310.603 191 310.165 190.86 309.773 190.58C309.381 190.3 309.11 189.936 308.961 189.488L307.561 185.456C307.299 184.672 306.982 184.14 306.609 183.86C306.235 183.58 305.657 183.44 304.873 183.44H303.697C303.547 183.44 303.473 183.524 303.473 183.692V189.404C303.473 189.833 303.314 190.207 302.997 190.524C302.679 190.841 302.306 191 301.877 191H300.393ZM320.59 191C320.161 191 319.788 190.841 319.47 190.524C319.172 190.207 319.022 189.833 319.022 189.404V172.156C319.022 171.727 319.172 171.353 319.47 171.036C319.788 170.719 320.161 170.56 320.59 170.56H322.662C323.092 170.56 323.456 170.719 323.754 171.036C324.072 171.353 324.23 171.727 324.23 172.156V189.404C324.23 189.833 324.072 190.207 323.754 190.524C323.456 190.841 323.092 191 322.662 191H320.59ZM335.099 174.424V187.136C335.099 187.304 335.183 187.407 335.351 187.444C335.724 187.519 336.172 187.556 336.695 187.556C338.58 187.556 339.971 187.005 340.867 185.904C341.781 184.803 342.239 183.001 342.239 180.5C342.239 178.26 341.781 176.617 340.867 175.572C339.952 174.527 338.561 174.004 336.695 174.004C336.172 174.004 335.724 174.041 335.351 174.116C335.183 174.153 335.099 174.256 335.099 174.424ZM332.019 191.056C331.571 191.019 331.197 190.832 330.899 190.496C330.6 190.141 330.451 189.731 330.451 189.264V172.296C330.451 171.829 330.6 171.428 330.899 171.092C331.197 170.737 331.571 170.541 332.019 170.504C333.475 170.355 334.912 170.28 336.331 170.28C339.672 170.28 342.248 171.167 344.059 172.94C345.869 174.713 346.775 177.233 346.775 180.5C346.775 184.047 345.869 186.735 344.059 188.564C342.248 190.375 339.672 191.28 336.331 191.28C334.912 191.28 333.475 191.205 332.019 191.056ZM355.971 174.424V187.136C355.971 187.304 356.055 187.407 356.223 187.444C356.596 187.519 357.044 187.556 357.567 187.556C359.452 187.556 360.843 187.005 361.739 185.904C362.654 184.803 363.111 183.001 363.111 180.5C363.111 178.26 362.654 176.617 361.739 175.572C360.824 174.527 359.434 174.004 357.567 174.004C357.044 174.004 356.596 174.041 356.223 174.116C356.055 174.153 355.971 174.256 355.971 174.424ZM352.891 191.056C352.443 191.019 352.07 190.832 351.771 190.496C351.472 190.141 351.323 189.731 351.323 189.264V172.296C351.323 171.829 351.472 171.428 351.771 171.092C352.07 170.737 352.443 170.541 352.891 170.504C354.347 170.355 355.784 170.28 357.203 170.28C360.544 170.28 363.12 171.167 364.931 172.94C366.742 174.713 367.647 177.233 367.647 180.5C367.647 184.047 366.742 186.735 364.931 188.564C363.12 190.375 360.544 191.28 357.203 191.28C355.784 191.28 354.347 191.205 352.891 191.056ZM373.791 191C373.362 191 372.988 190.841 372.671 190.524C372.354 190.207 372.195 189.833 372.195 189.404V172.156C372.195 171.727 372.354 171.353 372.671 171.036C372.988 170.719 373.362 170.56 373.791 170.56H375.527C375.956 170.56 376.32 170.719 376.619 171.036C376.936 171.353 377.095 171.727 377.095 172.156V186.828C377.095 186.977 377.179 187.052 377.347 187.052H384.151C384.58 187.052 384.954 187.211 385.271 187.528C385.588 187.845 385.747 188.219 385.747 188.648V189.404C385.747 189.833 385.588 190.207 385.271 190.524C384.954 190.841 384.58 191 384.151 191H373.791ZM392.42 191C391.991 191 391.617 190.841 391.3 190.524C391.001 190.207 390.852 189.833 390.852 189.404V172.156C390.852 171.727 391.001 171.353 391.3 171.036C391.617 170.719 391.991 170.56 392.42 170.56H402.332C402.761 170.56 403.125 170.719 403.424 171.036C403.741 171.353 403.9 171.727 403.9 172.156V172.8C403.9 173.229 403.741 173.603 403.424 173.92C403.125 174.237 402.761 174.396 402.332 174.396H395.836C395.687 174.396 395.612 174.471 395.612 174.62V178.316C395.612 178.484 395.687 178.568 395.836 178.568H401.772C402.201 178.568 402.565 178.727 402.864 179.044C403.181 179.361 403.34 179.735 403.34 180.164V180.584C403.34 181.013 403.181 181.387 402.864 181.704C402.565 182.021 402.201 182.18 401.772 182.18H395.836C395.687 182.18 395.612 182.255 395.612 182.404V186.94C395.612 187.089 395.687 187.164 395.836 187.164H402.332C402.761 187.164 403.125 187.323 403.424 187.64C403.741 187.957 403.9 188.331 403.9 188.76V189.404C403.9 189.833 403.741 190.207 403.424 190.524C403.125 190.841 402.761 191 402.332 191H392.42ZM415.118 182.824C412.766 182.077 411.067 181.153 410.022 180.052C408.976 178.932 408.454 177.569 408.454 175.964C408.454 174.209 409.06 172.828 410.274 171.82C411.506 170.793 413.26 170.28 415.538 170.28C417.255 170.28 418.814 170.476 420.214 170.868C420.662 170.999 421.016 171.269 421.278 171.68C421.558 172.072 421.698 172.511 421.698 172.996V173.808C421.698 174.181 421.539 174.471 421.222 174.676C420.904 174.881 420.568 174.919 420.214 174.788C418.627 174.228 417.162 173.948 415.818 173.948C414.1 173.948 413.242 174.62 413.242 175.964C413.242 177.103 413.988 177.915 415.482 178.4C418.058 179.184 419.84 180.099 420.83 181.144C421.838 182.189 422.342 183.561 422.342 185.26C422.342 189.273 419.812 191.28 414.754 191.28C413.148 191.28 411.692 191.028 410.386 190.524C409.938 190.356 409.583 190.067 409.322 189.656C409.079 189.227 408.958 188.76 408.958 188.256V187.36C408.958 187.024 409.107 186.772 409.406 186.604C409.704 186.417 410.003 186.399 410.302 186.548C411.664 187.22 413.055 187.556 414.474 187.556C415.463 187.556 416.21 187.369 416.714 186.996C417.236 186.604 417.498 186.053 417.498 185.344C417.498 184.728 417.32 184.224 416.966 183.832C416.611 183.44 415.995 183.104 415.118 182.824ZM542.597 191.28C539.536 191.28 537.128 190.375 535.373 188.564C533.618 186.753 532.741 184.159 532.741 180.78C532.741 177.457 533.59 174.881 535.289 173.052C536.988 171.204 539.358 170.28 542.401 170.28C543.857 170.28 545.126 170.383 546.209 170.588C546.657 170.663 547.021 170.887 547.301 171.26C547.581 171.633 547.721 172.053 547.721 172.52V173.416C547.721 173.808 547.562 174.116 547.245 174.34C546.928 174.564 546.582 174.629 546.209 174.536C545.145 174.256 544.062 174.116 542.961 174.116C541.281 174.116 539.965 174.685 539.013 175.824C538.08 176.963 537.613 178.615 537.613 180.78C537.613 182.908 538.117 184.56 539.125 185.736C540.133 186.912 541.477 187.5 543.157 187.5C544.277 187.5 545.369 187.36 546.433 187.08C546.806 186.987 547.152 187.052 547.469 187.276C547.805 187.5 547.973 187.808 547.973 188.2V189.04C547.973 189.507 547.824 189.927 547.525 190.3C547.245 190.673 546.881 190.897 546.433 190.972C545.332 191.177 544.053 191.28 542.597 191.28ZM566.389 180.78C566.389 176.393 564.821 174.2 561.685 174.2C558.549 174.2 556.981 176.393 556.981 180.78C556.981 185.167 558.549 187.36 561.685 187.36C564.821 187.36 566.389 185.167 566.389 180.78ZM568.685 188.508C566.968 190.356 564.634 191.28 561.685 191.28C558.736 191.28 556.402 190.356 554.685 188.508C552.968 186.641 552.109 184.065 552.109 180.78C552.109 177.495 552.968 174.928 554.685 173.08C556.402 171.213 558.736 170.28 561.685 170.28C564.634 170.28 566.968 171.213 568.685 173.08C570.402 174.928 571.261 177.495 571.261 180.78C571.261 184.065 570.402 186.641 568.685 188.508ZM580.448 174.424V187.136C580.448 187.304 580.532 187.407 580.7 187.444C581.073 187.519 581.521 187.556 582.044 187.556C583.929 187.556 585.32 187.005 586.216 185.904C587.13 184.803 587.588 183.001 587.588 180.5C587.588 178.26 587.13 176.617 586.216 175.572C585.301 174.527 583.91 174.004 582.044 174.004C581.521 174.004 581.073 174.041 580.7 174.116C580.532 174.153 580.448 174.256 580.448 174.424ZM577.368 191.056C576.92 191.019 576.546 190.832 576.248 190.496C575.949 190.141 575.8 189.731 575.8 189.264V172.296C575.8 171.829 575.949 171.428 576.248 171.092C576.546 170.737 576.92 170.541 577.368 170.504C578.824 170.355 580.261 170.28 581.68 170.28C585.021 170.28 587.597 171.167 589.408 172.94C591.218 174.713 592.124 177.233 592.124 180.5C592.124 184.047 591.218 186.735 589.408 188.564C587.597 190.375 585.021 191.28 581.68 191.28C580.261 191.28 578.824 191.205 577.368 191.056ZM598.24 191C597.81 191 597.437 190.841 597.12 190.524C596.821 190.207 596.672 189.833 596.672 189.404V172.156C596.672 171.727 596.821 171.353 597.12 171.036C597.437 170.719 597.81 170.56 598.24 170.56H608.152C608.581 170.56 608.945 170.719 609.244 171.036C609.561 171.353 609.72 171.727 609.72 172.156V172.8C609.72 173.229 609.561 173.603 609.244 173.92C608.945 174.237 608.581 174.396 608.152 174.396H601.656C601.506 174.396 601.432 174.471 601.432 174.62V178.316C601.432 178.484 601.506 178.568 601.656 178.568H607.592C608.021 178.568 608.385 178.727 608.684 179.044C609.001 179.361 609.16 179.735 609.16 180.164V180.584C609.16 181.013 609.001 181.387 608.684 181.704C608.385 182.021 608.021 182.18 607.592 182.18H601.656C601.506 182.18 601.432 182.255 601.432 182.404V186.94C601.432 187.089 601.506 187.164 601.656 187.164H608.152C608.581 187.164 608.945 187.323 609.244 187.64C609.561 187.957 609.72 188.331 609.72 188.76V189.404C609.72 189.833 609.561 190.207 609.244 190.524C608.945 190.841 608.581 191 608.152 191H598.24Z" fill="black"/>
<circle cx="251.5" cy="180.5" r="3.5" fill="black"/>
<circle cx="470.5" cy="180.5" r="3.5" fill="black"/>
<path d="M364 118V55" stroke="#1F6C22" stroke-width="6"/>
<path d="M364 118V55" stroke="#1F6C22" stroke-width="6"/>
<path d="M364 41.0938V5H384.098L405 60" stroke="#1F6C22" stroke-width="6"/>
<path d="M376 21V116H389V78.6941" stroke="#1F6C22" stroke-width="6"/>
<path d="M376 21V116H389V78.6941" stroke="#1F6C22" stroke-width="6"/>
<path d="M399 3L414 44" stroke="#1F6C22" stroke-width="6"/>
<path d="M387 54.8308L402.858 97.6923L438.844 4H473V116" stroke="#1F6C22" stroke-width="6"/>
<path d="M387 54.8308L402.858 97.6923L438.844 4H473V119" stroke="#1F6C22" stroke-width="6"/>
<path d="M461 50V117H449V78.3713" stroke="#1F6C22" stroke-width="6"/>
<path d="M461 50V117H449V78.3713" stroke="#1F6C22" stroke-width="6"/>
<path d="M448.824 20L415 115H427.782L462 20" stroke="#1F6C22" stroke-width="6"/>
<path d="M448.824 20L415 115H427.782L462 20" stroke="#1F6C22" stroke-width="6"/>
<path d="M570.485 54.8837L553.231 5H526.391L520 21.2016H545.136L575.811 115H592L577.728 76.2015" stroke="#114F5C" stroke-width="6"/>
<path d="M570.485 54.8837L553.231 5H526.391L520 21.2016H545.136L575.811 115H592L577.728 76.2015" stroke="#114F5C" stroke-width="6"/>
<path d="M512 38H539.636L550 77H526.034L531.432 61.5714" stroke="#114F5C" stroke-width="6"/>
<path d="M512 38H539.636L550 77H526.034L531.432 61.5714" stroke="#114F5C" stroke-width="6"/>
<path d="M483 118L504.941 60H517.935L509.627 86.9231H555" stroke="#114F5C" stroke-width="6"/>
<path d="M504.941 60H517.935L509.628 86.9231H555.001" stroke="#114F5C" stroke-width="6"/>
<path d="M506.442 97L499 115H513.458L519.837 97H556.621L563 115" stroke="#114F5C" stroke-width="6"/>
<path d="M506.442 97L499 115H513.458L519.837 97H556.621L563 115" stroke="#114F5C" stroke-width="6"/>
<path d="M606.651 18.0969H667V5H598V30.5601H665.734L618.257 114H669" stroke="#580B7B" stroke-width="6"/>
<path d="M644.362 90H666V103H635" stroke="#580B7B" stroke-width="6"/>
<path d="M644.362 90H666V103H635" stroke="#580B7B" stroke-width="6"/>
<path d="M626.537 42L598 90.2124L603.5 110L644 42" stroke="#580B7B" stroke-width="6"/>
<path d="M626.537 42L598 90.2124" stroke="#580B7B" stroke-width="6"/>
<path d="M737 4H676V75" stroke="#00477E" stroke-width="6"/>
<path d="M675 89V114H736V102.362H685.167" stroke="#00477E" stroke-width="6"/>
<path d="M736 58H688V91H702.442V71.8387H736" stroke="#00477E" stroke-width="6"/>
<path d="M711 90H736" stroke="#00477E" stroke-width="6"/>
<path d="M736 17H687V30.3099H701.784V47H734.944" stroke="#00477E" stroke-width="6"/>
<path d="M687 38V50" stroke="#00477E" stroke-width="6"/>
<path d="M713 30H736" stroke="#00477E" stroke-width="6"/>
<path d="M354 5H293V76" stroke="#00477E" stroke-width="6"/>
<path d="M354 5H293V76" stroke="#00477E" stroke-width="6"/>
<path d="M292 90V115H353V103.362H302.167" stroke="#00477E" stroke-width="6"/>
<path d="M292 90V115H353V103.362H302.167" stroke="#00477E" stroke-width="6"/>
<path d="M353 59H305V92H319.442V72.8387H353" stroke="#00477E" stroke-width="6"/>
<path d="M353 59H305V92H319.442V72.8387H353" stroke="#00477E" stroke-width="6"/>
<path d="M328 91H353" stroke="#00477E" stroke-width="6"/>
<path d="M328 91H353" stroke="#00477E" stroke-width="6"/>
<path d="M353 18H304V31.3099H318.784V48H351.944" stroke="#00477E" stroke-width="6"/>
<path d="M304 39V51" stroke="#00477E" stroke-width="6"/>
<path d="M330 31H353" stroke="#00477E" stroke-width="6"/>
<path d="M207.507 39.8011V88.5376H218.479V75.5M207.507 3C207.507 3 199.36 3.00001 248.404 3C297.448 2.99999 296.948 114 248.404 114H207.507V100.274C207.507 100.274 214.157 100.274 248.404 100.274C282.652 100.274 282.153 14.5376 248.404 14.5376H237M218.479 61V41.7903H231.28V88.5376C231.28 88.5376 232.452 88.5376 248.404 88.5376C264.356 88.5376 269.676 27.4677 248.404 27.4677H207.507V14.5376C207.507 14.5376 210.185 14.5376 220 14.5376" stroke="#820E36" stroke-width="6"/>
<path d="M144.338 114C124.914 109.19 105 92.2622 105 57.4422C105 22.6221 126.507 3.10504 152.337 3.00047C178.258 2.89553 200 20.5065 200 57.4422C200 94.3779 181.718 108.613 152.337 114V101.688C177.148 101.688 188.574 80.527 188.737 57.4422C188.9 34.3574 179.759 14.5429 152.337 14.5429C124.914 14.5429 115.447 33.9726 115.447 57.4422C115.447 80.9117 124.914 93.9927 144.012 100.534L144.338 88.2219C131.642 78.4484 127.199 71.1007 127.363 57.4422C127.526 43.7837 135.524 26.6624 152.337 26.6624C169.149 26.6624 177.964 40.6016 177.964 57.4422C177.964 74.2827 169.802 88.2219 152.337 88.2219" stroke="#875B06" stroke-width="6"/>
<path d="M99.9999 79.5502C94.5 100.418 81.3694 117 49.9999 117C18.6304 117 3.09447 86.2442 3.00027 55.5305C2.90573 24.708 26.0938 3 49.0469 3C72 3 94.9999 6.5 100 44.4545L87.9081 45.1668C83.9999 18.0273 64 15.3562 50.0469 15.3562C36.0938 15.3562 14.3988 24.7636 14.3988 56.5668C14.3988 88.37 29.8561 105.082 50.9999 105.082C72.1437 105.082 84.4999 96.7909 90.8683 77.8657L78.7765 73.9909C75.9999 84.8727 66.5 93.4081 50.9999 93.1636C35.4998 92.9191 25.3174 79.6678 25.3174 59.6759C25.3174 39.6841 42.5938 29.2029 53.0469 29.2029C63.5 29.2029 72.9999 32.5 76.7764 46.2032" stroke="#676F0B" stroke-width="6"/>
</svg>
