<svg width="689" height="675" viewBox="0 0 689 675" fill="none" xmlns="http://www.w3.org/2000/svg">
<path d="M558.89 446.072H390.656C383.806 446.072 378.254 451.496 378.254 458.188V547.314C378.254 554.005 383.806 559.429 390.656 559.429H558.89C565.739 559.429 571.292 554.005 571.292 547.314V458.188C571.292 451.496 565.739 446.072 558.89 446.072Z" fill="white"/>
<path opacity="0.1" d="M558.89 446.072H390.656C383.806 446.072 378.254 451.496 378.254 458.188V547.314C378.254 554.005 383.806 559.429 390.656 559.429H558.89C565.739 559.429 571.292 554.005 571.292 547.314V458.188C571.292 451.496 565.739 446.072 558.89 446.072Z" fill="#367CFF"/>
<path d="M518.118 506.854H503.222C502.315 506.854 501.58 507.572 501.58 508.458V540.713C501.58 541.599 502.315 542.317 503.222 542.317H518.118C519.025 542.317 519.76 541.599 519.76 540.713V508.458C519.76 507.572 519.025 506.854 518.118 506.854Z" fill="white"/>
<path d="M554.015 479.273H539.119C538.212 479.273 537.477 479.992 537.477 480.878V540.713C537.477 541.599 538.212 542.317 539.119 542.317H554.015C554.922 542.317 555.657 541.599 555.657 540.713V480.878C555.657 479.992 554.922 479.273 554.015 479.273Z" fill="white"/>
<path d="M410.425 506.854H395.529C394.622 506.854 393.887 507.572 393.887 508.458V540.713C393.887 541.599 394.622 542.317 395.529 542.317H410.425C411.332 542.317 412.067 541.599 412.067 540.713V508.458C412.067 507.572 411.332 506.854 410.425 506.854Z" fill="white"/>
<path d="M446.323 466.732H431.427C430.52 466.732 429.785 467.451 429.785 468.337V540.713C429.785 541.599 430.52 542.317 431.427 542.317H446.323C447.23 542.317 447.966 541.599 447.966 540.713V468.337C447.966 467.451 447.23 466.732 446.323 466.732Z" fill="white"/>
<path d="M482.22 498.904H467.324C466.417 498.904 465.682 499.623 465.682 500.508V540.712C465.682 541.598 466.417 542.316 467.324 542.316H482.22C483.127 542.316 483.862 541.598 483.862 540.712V500.508C483.862 499.623 483.127 498.904 482.22 498.904Z" fill="white"/>
<path d="M256.11 376.742H42.5901C33.8969 376.742 26.8496 383.627 26.8496 392.119V505.236C26.8496 513.728 33.8969 520.613 42.5901 520.613H256.11C264.803 520.613 271.85 513.728 271.85 505.236V392.119C271.85 383.627 264.803 376.742 256.11 376.742Z" fill="white"/>
<path opacity="0.1" d="M256.11 376.742H42.5901C33.8969 376.742 26.8496 383.627 26.8496 392.119V505.236C26.8496 513.728 33.8969 520.613 42.5901 520.613H256.11C264.803 520.613 271.85 513.728 271.85 505.236V392.119C271.85 383.627 264.803 376.742 256.11 376.742Z" fill="#367CFF"/>
<path d="M204.365 453.885H185.459C184.308 453.885 183.375 454.796 183.375 455.921V496.858C183.375 497.982 184.308 498.894 185.459 498.894H204.365C205.516 498.894 206.449 497.982 206.449 496.858V455.921C206.449 454.796 205.516 453.885 204.365 453.885Z" fill="white"/>
<path d="M249.926 418.881H231.019C229.869 418.881 228.936 419.792 228.936 420.917V496.859C228.936 497.984 229.869 498.895 231.019 498.895H249.926C251.077 498.895 252.01 497.984 252.01 496.859V420.917C252.01 419.792 251.077 418.881 249.926 418.881Z" fill="white"/>
<path d="M67.6818 453.885H48.7753C47.6244 453.885 46.6914 454.796 46.6914 455.921V496.858C46.6914 497.982 47.6244 498.894 48.7753 498.894H67.6818C68.8328 498.894 69.7658 497.982 69.7658 496.858V455.921C69.7658 454.796 68.8328 453.885 67.6818 453.885Z" fill="white"/>
<path d="M113.242 402.965H94.3359C93.185 402.965 92.252 403.876 92.252 405.001V496.859C92.252 497.983 93.185 498.894 94.3359 498.894H113.242C114.393 498.894 115.326 497.983 115.326 496.859V405.001C115.326 403.876 114.393 402.965 113.242 402.965Z" fill="white"/>
<path d="M158.805 443.797H139.898C138.747 443.797 137.814 444.708 137.814 445.833V496.859C137.814 497.983 138.747 498.895 139.898 498.895H158.805C159.956 498.895 160.889 497.983 160.889 496.859V445.833C160.889 444.708 159.956 443.797 158.805 443.797Z" fill="white"/>
<path d="M660.931 0H415.705C405.721 0 397.627 7.90677 397.627 17.6603V147.575C397.627 157.328 405.721 165.235 415.705 165.235H660.931C670.915 165.235 679.009 157.328 679.009 147.575V17.6603C679.009 7.90677 670.915 0 660.931 0Z" fill="white"/>
<path opacity="0.1" d="M660.931 0H415.705C405.721 0 397.627 7.90677 397.627 17.6603V147.575C397.627 157.328 405.721 165.235 415.705 165.235H660.931C670.915 165.235 679.009 157.328 679.009 147.575V17.6603C679.009 7.90677 670.915 0 660.931 0Z" fill="#367CFF"/>
<path d="M601.5 88.5996H579.786C578.464 88.5996 577.393 89.6464 577.393 90.9376V137.954C577.393 139.246 578.464 140.292 579.786 140.292H601.5C602.821 140.292 603.893 139.246 603.893 137.954V90.9376C603.893 89.6464 602.821 88.5996 601.5 88.5996Z" fill="white"/>
<path d="M653.826 48.3965H632.112C630.79 48.3965 629.719 49.4432 629.719 50.7345V137.954C629.719 139.245 630.79 140.292 632.112 140.292H653.826C655.147 140.292 656.219 139.245 656.219 137.954V50.7345C656.219 49.4432 655.147 48.3965 653.826 48.3965Z" fill="white"/>
<path d="M444.521 88.5996H422.807C421.486 88.5996 420.414 89.6464 420.414 90.9376V137.954C420.414 139.246 421.486 140.292 422.807 140.292H444.521C445.843 140.292 446.914 139.246 446.914 137.954V90.9376C446.914 89.6464 445.843 88.5996 444.521 88.5996Z" fill="white"/>
<path d="M496.847 30.1172H475.134C473.812 30.1172 472.74 31.1639 472.74 32.4552V137.954C472.74 139.246 473.812 140.292 475.134 140.292H496.847C498.169 140.292 499.241 139.246 499.241 137.954V32.4552C499.241 31.1639 498.169 30.1172 496.847 30.1172Z" fill="white"/>
<path d="M549.173 77.0117H527.46C526.138 77.0117 525.066 78.0585 525.066 79.3497V137.953C525.066 139.244 526.138 140.291 527.46 140.291H549.173C550.495 140.291 551.567 139.244 551.567 137.953V79.3497C551.567 78.0585 550.495 77.0117 549.173 77.0117Z" fill="white"/>
<path d="M128.446 136.383H8.81839C3.94813 136.383 0 140.24 0 144.997V208.373C0 213.131 3.94813 216.988 8.81839 216.988H128.446C133.316 216.988 137.264 213.131 137.264 208.373V144.997C137.264 140.24 133.316 136.383 128.446 136.383Z" fill="white"/>
<path opacity="0.3" d="M128.446 136.383H8.81839C3.94813 136.383 0 140.24 0 144.997V208.373C0 213.131 3.94813 216.988 8.81839 216.988H128.446C133.316 216.988 137.264 213.131 137.264 208.373V144.997C137.264 140.24 133.316 136.383 128.446 136.383Z" fill="#367CFF"/>
<path d="M99.4556 179.604H88.8626C88.2179 179.604 87.6953 180.114 87.6953 180.744V203.68C87.6953 204.31 88.2179 204.821 88.8626 204.821H99.4556C100.1 204.821 100.623 204.31 100.623 203.68V180.744C100.623 180.114 100.1 179.604 99.4556 179.604Z" fill="white"/>
<path d="M124.981 159.99H114.388C113.743 159.99 113.221 160.501 113.221 161.131V203.678C113.221 204.308 113.743 204.819 114.388 204.819H124.981C125.626 204.819 126.148 204.308 126.148 203.678V161.131C126.148 160.501 125.626 159.99 124.981 159.99Z" fill="white"/>
<path d="M22.8774 179.604H12.2845C11.6398 179.604 11.1172 180.114 11.1172 180.744V203.68C11.1172 204.31 11.6398 204.821 12.2845 204.821H22.8774C23.5221 204.821 24.0447 204.31 24.0447 203.68V180.744C24.0447 180.114 23.5221 179.604 22.8774 179.604Z" fill="white"/>
<path d="M48.4048 151.074H37.8118C37.1671 151.074 36.6445 151.585 36.6445 152.215V203.68C36.6445 204.31 37.1671 204.82 37.8118 204.82H48.4048C49.0495 204.82 49.5721 204.31 49.5721 203.68V152.215C49.5721 151.585 49.0495 151.074 48.4048 151.074Z" fill="white"/>
<path d="M73.9302 173.951H63.3372C62.6925 173.951 62.1699 174.462 62.1699 175.091V203.68C62.1699 204.31 62.6925 204.82 63.3372 204.82H73.9302C74.5748 204.82 75.0975 204.31 75.0975 203.68V175.091C75.0975 174.462 74.5748 173.951 73.9302 173.951Z" fill="white"/>
<path d="M114.051 422.084L597.213 422.084C609.079 422.084 618.697 412.688 618.697 401.097V55.5202C618.697 43.9292 609.079 34.5327 597.213 34.5327L114.051 34.5327C102.186 34.5327 92.5669 43.9292 92.5669 55.5202V401.097C92.5669 412.688 102.186 422.084 114.051 422.084Z" fill="white"/>
<path d="M91.8496 401.097V55.521C91.8562 49.7713 94.1973 44.2588 98.3592 40.1931C102.521 36.1274 108.164 33.8405 114.05 33.834H597.212C603.098 33.8405 608.741 36.1274 612.903 40.1931C617.065 44.2588 619.406 49.7713 619.412 55.521V401.097C619.406 406.847 617.065 412.36 612.903 416.425C608.741 420.491 603.098 422.778 597.212 422.784H114.05C108.164 422.778 102.521 420.491 98.3592 416.425C94.1973 412.36 91.8562 406.847 91.8496 401.097ZM114.05 35.2331C108.544 35.2394 103.265 37.3789 99.3717 41.1823C95.4784 44.9856 93.2883 50.1423 93.2819 55.521V401.097C93.2881 406.476 95.4782 411.633 99.3715 415.436C103.265 419.24 108.544 421.379 114.05 421.385H597.212C602.718 421.379 607.997 419.24 611.891 415.437C615.784 411.633 617.974 406.476 617.98 401.097V55.521C617.974 50.1422 615.784 44.9855 611.89 41.1821C607.997 37.3787 602.718 35.2393 597.212 35.2331H114.05Z" fill="#292A2E"/>
<path d="M92.5664 55.5187V76.637H618.694V55.5187C618.694 49.9525 616.43 44.6143 612.401 40.6783C608.372 36.7424 602.908 34.5312 597.21 34.5312H114.05C108.352 34.5312 102.888 36.7424 98.8589 40.6783C94.8299 44.6143 92.5664 49.9525 92.5664 55.5187Z" fill="#292A2E"/>
<path d="M590.268 96.7051H385.264C380.232 96.7051 376.152 100.69 376.152 105.606V247.277C376.152 252.193 380.232 256.178 385.264 256.178H590.268C595.3 256.178 599.379 252.193 599.379 247.277V105.606C599.379 100.69 595.3 96.7051 590.268 96.7051Z" fill="white"/>
<path opacity="0.15" d="M590.268 96.7051H385.264C380.232 96.7051 376.152 100.69 376.152 105.606V247.277C376.152 252.193 380.232 256.178 385.264 256.178H590.268C595.3 256.178 599.379 252.193 599.379 247.277V105.606C599.379 100.69 595.3 96.7051 590.268 96.7051Z" fill="#367CFF"/>
<path d="M416.22 116.605H398.502C397.679 116.605 397.012 117.257 397.012 118.061V234.823C397.012 235.627 397.679 236.279 398.502 236.279H416.22C417.043 236.279 417.71 235.627 417.71 234.823V118.061C417.71 117.257 417.043 116.605 416.22 116.605Z" fill="#FAFAFA"/>
<path opacity="0.6" d="M397.012 175.268H417.708V234.823C417.708 235.209 417.551 235.579 417.271 235.852C416.992 236.126 416.613 236.279 416.218 236.279H398.502C398.107 236.279 397.728 236.126 397.448 235.852C397.169 235.579 397.012 235.209 397.012 234.823V175.268Z" fill="#367CFF"/>
<path d="M456.423 116.605H438.705C437.882 116.605 437.215 117.257 437.215 118.061V234.823C437.215 235.627 437.882 236.279 438.705 236.279H456.423C457.246 236.279 457.913 235.627 457.913 234.823V118.061C457.913 117.257 457.246 116.605 456.423 116.605Z" fill="#FAFAFA"/>
<path opacity="0.6" d="M437.215 158.682H457.911V234.823C457.911 235.209 457.754 235.579 457.474 235.852C457.195 236.125 456.816 236.279 456.421 236.279H438.705C438.31 236.279 437.931 236.125 437.651 235.852C437.372 235.579 437.215 235.209 437.215 234.823V158.682Z" fill="#367CFF"/>
<path d="M577.028 116.605H559.311C558.488 116.605 557.82 117.257 557.82 118.061V234.823C557.82 235.627 558.488 236.279 559.311 236.279H577.028C577.851 236.279 578.519 235.627 578.519 234.823V118.061C578.519 117.257 577.851 116.605 577.028 116.605Z" fill="#FAFAFA"/>
<path opacity="0.6" d="M557.82 141.947H578.517V234.824C578.517 235.21 578.36 235.58 578.08 235.853C577.801 236.126 577.422 236.28 577.026 236.28H559.311C558.916 236.28 558.537 236.126 558.258 235.853C557.978 235.58 557.821 235.21 557.821 234.824V141.947H557.82Z" fill="#367CFF"/>
<path d="M496.626 116.605H478.908C478.085 116.605 477.418 117.257 477.418 118.061V234.823C477.418 235.627 478.085 236.279 478.908 236.279H496.626C497.449 236.279 498.116 235.627 498.116 234.823V118.061C498.116 117.257 497.449 116.605 496.626 116.605Z" fill="#FAFAFA"/>
<path opacity="0.6" d="M477.418 202.094H498.114V234.822C498.114 235.208 497.957 235.579 497.678 235.852C497.398 236.125 497.019 236.278 496.624 236.278H478.908C478.513 236.278 478.134 236.125 477.854 235.852C477.575 235.579 477.418 235.208 477.418 234.822V202.094Z" fill="#367CFF"/>
<path d="M536.827 116.605H519.109C518.286 116.605 517.619 117.257 517.619 118.061V234.823C517.619 235.627 518.286 236.279 519.109 236.279H536.827C537.65 236.279 538.317 235.627 538.317 234.823V118.061C538.317 117.257 537.65 116.605 536.827 116.605Z" fill="#FAFAFA"/>
<path opacity="0.6" d="M517.617 181.182H538.313V234.821C538.313 235.208 538.156 235.578 537.877 235.851C537.597 236.124 537.218 236.277 536.823 236.277H519.11C518.914 236.277 518.72 236.24 518.539 236.166C518.359 236.093 518.194 235.986 518.056 235.851C517.917 235.716 517.808 235.555 517.733 235.379C517.658 235.202 517.619 235.013 517.619 234.821V181.182H517.617Z" fill="#367CFF"/>
<path opacity="0.15" d="M586.338 271.787H386.73C379.527 271.787 373.688 277.492 373.688 284.529V390.117C373.688 397.154 379.527 402.859 386.73 402.859H586.338C593.541 402.859 599.381 397.154 599.381 390.117V284.529C599.381 277.492 593.541 271.787 586.338 271.787Z" fill="#367CFF"/>
<path d="M508.694 304.527C511.372 304.527 513.542 302.407 513.542 299.791C513.542 297.175 511.372 295.055 508.694 295.055C506.016 295.055 503.846 297.175 503.846 299.791C503.846 302.407 506.016 304.527 508.694 304.527Z" fill="#367CFF"/>
<path d="M508.694 328.67C511.372 328.67 513.542 326.549 513.542 323.933C513.542 321.318 511.372 319.197 508.694 319.197C506.016 319.197 503.846 321.318 503.846 323.933C503.846 326.549 506.016 328.67 508.694 328.67Z" fill="#262626"/>
<path d="M508.694 352.814C511.372 352.814 513.542 350.694 513.542 348.078C513.542 345.462 511.372 343.342 508.694 343.342C506.016 343.342 503.846 345.462 503.846 348.078C503.846 350.694 506.016 352.814 508.694 352.814Z" fill="white"/>
<path opacity="0.5" d="M508.694 376.957C511.372 376.957 513.542 374.836 513.542 372.221C513.542 369.605 511.372 367.484 508.694 367.484C506.016 367.484 503.846 369.605 503.846 372.221C503.846 374.836 506.016 376.957 508.694 376.957Z" fill="#367CFF"/>
<path d="M575.975 299.789C575.975 300.499 575.686 301.181 575.172 301.683C574.657 302.186 573.96 302.468 573.232 302.468H526.631C525.983 302.48 525.35 302.274 524.839 301.884C524.328 301.494 523.969 300.945 523.823 300.327C523.742 299.938 523.75 299.535 523.848 299.149C523.945 298.763 524.129 298.403 524.387 298.095C524.645 297.787 524.969 297.538 525.337 297.368C525.705 297.198 526.107 297.109 526.514 297.109H573.232C573.592 297.109 573.949 297.179 574.282 297.313C574.615 297.448 574.917 297.645 575.172 297.894C575.427 298.143 575.629 298.438 575.766 298.763C575.904 299.088 575.975 299.437 575.975 299.789Z" fill="white"/>
<path d="M575.975 323.933C575.975 324.643 575.686 325.325 575.171 325.827C574.657 326.33 573.959 326.612 573.232 326.612H526.658C526.278 326.618 525.9 326.549 525.548 326.409C525.195 326.27 524.875 326.062 524.606 325.8C524.337 325.537 524.124 325.224 523.981 324.88C523.838 324.536 523.767 324.167 523.772 323.796C523.808 323.109 524.113 322.463 524.624 321.99C525.134 321.517 525.81 321.254 526.514 321.254H573.232C573.592 321.254 573.949 321.323 574.281 321.458C574.614 321.592 574.917 321.789 575.171 322.038C575.426 322.287 575.628 322.582 575.766 322.907C575.904 323.232 575.975 323.581 575.975 323.933Z" fill="white"/>
<path d="M575.975 348.077C575.975 348.788 575.686 349.469 575.171 349.972C574.657 350.474 573.959 350.757 573.232 350.757H526.231C525.578 350.757 524.951 350.503 524.489 350.052C524.027 349.6 523.768 348.988 523.768 348.35V347.805C523.768 347.167 524.027 346.555 524.489 346.103C524.951 345.652 525.578 345.398 526.231 345.398H573.232C573.592 345.398 573.949 345.468 574.282 345.602C574.614 345.737 574.917 345.934 575.171 346.183C575.426 346.432 575.628 346.727 575.766 347.052C575.904 347.377 575.975 347.725 575.975 348.077Z" fill="white"/>
<path d="M575.975 372.222C575.975 372.933 575.686 373.614 575.172 374.117C574.657 374.619 573.96 374.902 573.232 374.902H526.642C525.993 374.914 525.359 374.708 524.846 374.319C524.333 373.93 523.972 373.38 523.823 372.763C523.742 372.373 523.75 371.971 523.847 371.585C523.945 371.199 524.129 370.838 524.386 370.53C524.644 370.222 524.968 369.974 525.336 369.804C525.704 369.633 526.106 369.545 526.513 369.545H573.231C573.591 369.545 573.948 369.614 574.281 369.748C574.613 369.882 574.916 370.08 575.171 370.328C575.426 370.577 575.628 370.872 575.766 371.197C575.904 371.522 575.975 371.87 575.975 372.222Z" fill="white"/>
<path d="M417.726 336.006C417.728 341.78 419.561 347.411 422.975 352.123C426.389 356.836 431.214 360.399 436.787 362.321L428.949 380.994C418.171 377.025 409.158 369.488 403.483 359.696C397.808 349.904 395.83 338.477 397.894 327.406C399.957 316.335 405.931 306.322 414.775 299.112C423.619 291.902 434.772 287.952 446.29 287.949V308.107C438.716 308.107 431.451 311.046 426.094 316.278C420.737 321.51 417.727 328.606 417.726 336.006Z" fill="#367CFF"/>
<path d="M495.489 336.007H474.854C474.854 328.606 471.845 321.509 466.488 316.276C461.131 311.043 453.866 308.103 446.291 308.103V287.945C459.339 287.945 471.853 293.009 481.079 302.022C490.306 311.035 495.489 323.26 495.489 336.007Z" fill="#262626"/>
<path d="M495.489 336.006C495.488 346.896 491.702 357.463 484.752 365.978C477.801 374.492 468.098 380.449 457.23 382.874L453.734 362.948C459.796 361.348 465.149 357.842 468.967 352.972C472.784 348.102 474.853 342.14 474.854 336.006H495.489Z" fill="white"/>
<path opacity="0.5" d="M457.229 382.875C447.817 384.959 437.985 384.304 428.949 380.993L436.786 362.322C442.242 364.193 448.148 364.412 453.734 362.952L457.229 382.875Z" fill="#367CFF"/>
<path opacity="0.15" d="M345.047 96.7051H124.746C117.627 96.7051 111.855 102.343 111.855 109.298V390.267C111.855 397.221 117.627 402.859 124.746 402.859H345.047C352.167 402.859 357.938 397.221 357.938 390.267V109.298C357.938 102.343 352.167 96.7051 345.047 96.7051Z" fill="#367CFF"/>
<path d="M301.477 216.191C301.477 230.161 297.237 243.818 289.292 255.433C281.347 267.049 270.055 276.102 256.843 281.448C243.631 286.795 229.093 288.194 215.068 285.468C201.042 282.743 188.159 276.016 178.047 266.138C167.935 256.259 161.048 243.674 158.259 229.972C155.469 216.271 156.9 202.068 162.373 189.162C167.845 176.255 177.113 165.224 189.003 157.463C200.893 149.701 214.873 145.559 229.173 145.559V216.191H301.477Z" fill="#FAFAFA"/>
<path opacity="0.6" d="M310.341 207.015H238.041V136.383C257.216 136.384 275.606 143.826 289.165 157.072C302.724 170.318 310.341 188.283 310.341 207.015Z" fill="#367CFF"/>
<path opacity="0.6" d="M154.198 326.892C156.875 326.892 159.046 324.772 159.046 322.156C159.046 319.54 156.875 317.42 154.198 317.42C151.52 317.42 149.35 319.54 149.35 322.156C149.35 324.772 151.52 326.892 154.198 326.892Z" fill="#367CFF"/>
<path d="M154.198 351.037C156.875 351.037 159.046 348.916 159.046 346.301C159.046 343.685 156.875 341.564 154.198 341.564C151.52 341.564 149.35 343.685 149.35 346.301C149.35 348.916 151.52 351.037 154.198 351.037Z" fill="#FAFAFA"/>
<path opacity="0.6" d="M320.304 322.159C320.304 322.869 320.015 323.551 319.501 324.053C318.987 324.556 318.289 324.838 317.561 324.838H172.135C171.487 324.85 170.854 324.643 170.343 324.253C169.831 323.864 169.473 323.314 169.327 322.697C169.245 322.307 169.254 321.904 169.352 321.518C169.449 321.132 169.634 320.772 169.891 320.464C170.149 320.156 170.473 319.908 170.841 319.737C171.209 319.567 171.611 319.478 172.019 319.479H317.561C317.922 319.479 318.278 319.548 318.611 319.683C318.944 319.817 319.246 320.015 319.501 320.264C319.756 320.512 319.958 320.808 320.096 321.133C320.233 321.458 320.304 321.807 320.304 322.159Z" fill="#367CFF"/>
<path d="M320.304 346.3C320.304 347.011 320.015 347.693 319.501 348.195C318.986 348.698 318.289 348.98 317.561 348.98H172.163C171.783 348.985 171.405 348.916 171.052 348.777C170.7 348.637 170.379 348.43 170.11 348.168C169.841 347.905 169.628 347.592 169.485 347.248C169.342 346.904 169.271 346.535 169.276 346.163C169.313 345.477 169.618 344.831 170.128 344.358C170.638 343.885 171.315 343.621 172.018 343.621H317.561C317.921 343.621 318.278 343.69 318.611 343.825C318.944 343.96 319.246 344.157 319.501 344.406C319.755 344.655 319.957 344.95 320.095 345.275C320.233 345.6 320.304 345.949 320.304 346.3Z" fill="white"/>
<path d="M90.8439 599.583C90.7665 599.583 90.69 599.568 90.6185 599.54C90.5471 599.511 90.4823 599.468 90.4278 599.415C89.5978 598.604 88.2465 583.739 84.6049 539.478C83.1147 521.368 81.7068 504.261 80.6799 493.866C80.6082 493.123 80.3118 493.037 80.2151 493.009C78.8093 492.595 74.5333 495.888 72.1465 498.773C72.0979 498.831 72.0379 498.88 71.9699 498.916C71.902 498.952 71.8274 498.975 71.7505 498.983C71.6736 498.991 71.5959 498.984 71.5217 498.963C71.4475 498.941 71.3784 498.906 71.3183 498.858C71.2581 498.811 71.2082 498.752 71.1712 498.686C71.1342 498.619 71.111 498.547 71.1029 498.472C71.0947 498.396 71.1018 498.32 71.1237 498.248C71.1456 498.175 71.1819 498.108 71.2305 498.049C72.806 496.142 77.9543 491.143 80.5538 491.907C80.9447 492.038 81.282 492.288 81.5159 492.621C81.7497 492.954 81.8676 493.352 81.8522 493.755C82.8798 504.16 84.287 521.271 85.7787 539.386C87.9915 566.282 90.498 596.752 91.3222 598.672C91.3848 598.758 91.422 598.859 91.4298 598.965C91.4375 599.07 91.4155 599.175 91.3662 599.269C91.3168 599.363 91.242 599.442 91.1498 599.497C91.0577 599.552 90.9519 599.581 90.8439 599.582V599.583Z" fill="#494949"/>
<path d="M79.1692 512.943C88.9376 505.294 92.1753 493.388 86.4007 486.351C80.6262 479.313 68.0261 479.809 58.2576 487.458C48.4892 495.108 45.2515 507.014 51.0261 514.051C56.8007 521.089 69.4007 520.593 79.1692 512.943Z" fill="#0CBC8B"/>
<path opacity="0.2" d="M79.1692 512.943C88.9376 505.294 92.1753 493.388 86.4007 486.351C80.6262 479.313 68.0261 479.809 58.2576 487.458C48.4892 495.108 45.2515 507.014 51.0261 514.051C56.8007 521.089 69.4007 520.593 79.1692 512.943Z" fill="white"/>
<path d="M53.7626 515.84C53.7068 515.84 53.6521 515.824 53.6051 515.795C53.558 515.766 53.5204 515.724 53.4967 515.675C53.4729 515.625 53.4641 515.57 53.4711 515.516C53.4781 515.462 53.5007 515.411 53.5363 515.369L81.3758 482.573C81.4256 482.514 81.4973 482.477 81.5751 482.47C81.6528 482.463 81.7303 482.486 81.7904 482.535C81.8505 482.584 81.8884 482.654 81.8956 482.73C81.9029 482.806 81.8789 482.881 81.8291 482.94L53.9896 515.736C53.962 515.769 53.9273 515.795 53.888 515.813C53.8488 515.831 53.8059 515.84 53.7626 515.84Z" fill="white"/>
<path d="M96.9162 592.552C96.8224 592.552 96.7299 592.53 96.6466 592.488C96.5633 592.446 96.4914 592.385 96.4371 592.31C96.3827 592.235 96.3474 592.149 96.3341 592.058C96.3208 591.967 96.3298 591.875 96.3605 591.788L106.816 562.409C107.123 561.546 107.648 560.771 108.341 560.157C109.035 559.543 109.875 559.109 110.785 558.895C111.694 558.68 112.645 558.692 113.548 558.93C114.452 559.167 115.28 559.622 115.957 560.254L121.486 565.413C121.595 565.519 121.658 565.663 121.66 565.814C121.662 565.965 121.603 566.11 121.497 566.219C121.39 566.328 121.244 566.392 121.09 566.396C120.936 566.401 120.786 566.346 120.672 566.244L115.144 561.086C114.61 560.587 113.956 560.227 113.242 560.04C112.529 559.852 111.778 559.843 111.06 560.012C110.342 560.181 109.679 560.524 109.131 561.009C108.584 561.494 108.17 562.105 107.927 562.787L97.4719 592.169C97.4312 592.281 97.3559 592.379 97.2563 592.447C97.1568 592.516 97.038 592.552 96.9162 592.552Z" fill="#494949"/>
<path d="M136.931 581.677C144.171 576.079 143.74 563.768 135.97 554.178C128.2 544.588 116.033 541.352 108.793 546.95C101.554 552.548 101.984 564.86 109.754 574.449C117.525 584.039 129.692 587.275 136.931 581.677Z" fill="#0CBC8B"/>
<path d="M86.0941 597.71C85.9617 597.71 85.8332 597.666 85.7293 597.586C85.6254 597.506 85.5521 597.394 85.5212 597.268L67.9761 525.588C67.8564 525.099 67.6011 524.652 67.2382 524.296C66.8753 523.94 66.4188 523.688 65.9191 523.569C65.4193 523.45 64.8956 523.468 64.4055 523.621C63.9155 523.774 63.4781 524.055 63.1415 524.436L57.7319 530.542C57.6821 530.602 57.6206 530.651 57.551 530.687C57.4814 530.723 57.4052 530.745 57.3268 530.751C57.2484 530.758 57.1695 530.749 57.0947 530.725C57.0198 530.702 56.9506 530.663 56.8911 530.613C56.8316 530.563 56.783 530.501 56.7482 530.433C56.7134 530.364 56.6931 530.289 56.6885 530.212C56.6839 530.135 56.6951 530.058 56.7214 529.986C56.7477 529.913 56.7886 529.847 56.8417 529.79L62.2513 523.683C62.7298 523.143 63.3514 522.743 64.0477 522.526C64.744 522.308 65.4881 522.283 66.1981 522.452C66.9082 522.622 67.5567 522.979 68.0724 523.485C68.5881 523.991 68.951 524.626 69.1212 525.321L86.6663 597.001C86.6843 597.075 86.6873 597.151 86.6752 597.225C86.663 597.3 86.636 597.371 86.5956 597.436C86.5551 597.5 86.5021 597.556 86.4395 597.6C86.3769 597.644 86.3061 597.676 86.2309 597.694C86.1861 597.705 86.1402 597.71 86.0941 597.71Z" fill="#494949"/>
<path d="M79.6188 546.469C81.7521 534.418 76.1063 523.403 67.0086 521.866C57.911 520.329 48.8065 528.853 46.6732 540.904C44.5399 552.955 50.1857 563.971 59.2833 565.507C68.381 567.044 77.4855 558.521 79.6188 546.469Z" fill="#0CBC8B"/>
<path d="M90.8445 599.582C90.8206 599.582 90.7967 599.581 90.7729 599.578C90.618 599.56 90.477 599.482 90.3809 599.361C90.2848 599.241 90.2413 599.089 90.2602 598.937L101.466 510.055C101.588 509.087 101.994 508.173 102.634 507.425C103.275 506.677 104.123 506.125 105.077 505.836C106.031 505.548 107.05 505.534 108.012 505.798C108.973 506.061 109.836 506.59 110.497 507.322L123.306 521.493C123.357 521.55 123.396 521.616 123.422 521.687C123.447 521.758 123.457 521.834 123.452 521.909C123.448 521.985 123.428 522.058 123.394 522.126C123.36 522.194 123.313 522.255 123.255 522.305C123.197 522.355 123.129 522.393 123.056 522.418C122.983 522.442 122.906 522.453 122.829 522.448C122.751 522.443 122.676 522.424 122.606 522.391C122.537 522.358 122.475 522.311 122.424 522.255L109.615 508.083C109.104 507.518 108.437 507.109 107.694 506.906C106.951 506.702 106.164 506.712 105.426 506.935C104.689 507.158 104.033 507.584 103.538 508.163C103.043 508.741 102.729 509.447 102.635 510.195L91.4282 599.077C91.4107 599.217 91.3417 599.345 91.2342 599.438C91.1267 599.531 90.9881 599.582 90.8445 599.582Z" fill="#494949"/>
<path d="M136.441 529.369C140.91 521.477 135.652 510.28 124.697 504.36C113.742 498.441 101.238 500.04 96.7694 507.932C92.3005 515.825 97.5586 527.022 108.514 532.941C119.469 538.861 131.972 537.262 136.441 529.369Z" fill="#0CBC8B"/>
<path opacity="0.2" d="M136.931 581.677C144.171 576.079 143.74 563.768 135.97 554.178C128.2 544.588 116.033 541.352 108.793 546.95C101.554 552.548 101.984 564.86 109.754 574.449C117.525 584.039 129.692 587.275 136.931 581.677Z" fill="white"/>
<path opacity="0.5" d="M79.6188 546.469C81.7521 534.418 76.1063 523.403 67.0086 521.866C57.911 520.329 48.8065 528.853 46.6732 540.904C44.5399 552.955 50.1857 563.971 59.2833 565.507C68.381 567.044 77.4855 558.521 79.6188 546.469Z" fill="white"/>
<path opacity="0.5" d="M136.441 529.369C140.91 521.477 135.652 510.28 124.697 504.36C113.742 498.441 101.238 500.04 96.7694 507.932C92.3005 515.825 97.5586 527.022 108.514 532.941C119.469 538.861 131.972 537.262 136.441 529.369Z" fill="white"/>
<path d="M105.176 674.999H76.5098L71.7598 585.4H109.927L105.176 674.999Z" fill="#292A2E"/>
<path opacity="0.3" d="M105.176 674.999H76.5098L71.7598 585.4H109.927L105.176 674.999Z" fill="white"/>
<path d="M136.933 581.964C136.889 581.964 136.845 581.955 136.805 581.936C136.764 581.917 136.729 581.889 136.702 581.855L108.564 547.128C108.54 547.099 108.522 547.065 108.511 547.029C108.501 546.992 108.498 546.954 108.502 546.917C108.506 546.879 108.518 546.843 108.537 546.81C108.556 546.777 108.581 546.748 108.611 546.724C108.642 546.701 108.676 546.684 108.714 546.673C108.751 546.663 108.79 546.66 108.828 546.664C108.866 546.668 108.904 546.68 108.937 546.698C108.971 546.717 109.001 546.741 109.025 546.771L137.164 581.498C137.212 581.558 137.234 581.634 137.225 581.71C137.216 581.786 137.176 581.855 137.115 581.902C137.063 581.942 136.999 581.964 136.933 581.964Z" fill="white"/>
<path d="M134.572 532.151C134.509 532.151 134.449 532.132 134.398 532.096L98.3914 506.411C98.3589 506.389 98.3313 506.362 98.3101 506.329C98.2889 506.297 98.2745 506.261 98.2679 506.223C98.2613 506.185 98.2625 506.146 98.2714 506.109C98.2804 506.071 98.297 506.036 98.3201 506.005C98.3433 505.974 98.3726 505.948 98.4064 505.928C98.4401 505.908 98.4775 505.895 98.5165 505.89C98.5554 505.884 98.5951 505.886 98.6332 505.896C98.6712 505.906 98.7068 505.923 98.738 505.947L134.746 531.631C134.796 531.667 134.833 531.717 134.852 531.775C134.871 531.833 134.871 531.895 134.852 531.953C134.833 532.011 134.795 532.061 134.745 532.096C134.694 532.132 134.634 532.151 134.572 532.151Z" fill="white"/>
<path d="M57.8218 565.131C57.7959 565.131 57.7701 565.128 57.7452 565.121C57.6702 565.102 57.6063 565.054 57.5673 564.988C57.5283 564.923 57.5173 564.845 57.5368 564.772L68.9991 522.818C69.0199 522.745 69.069 522.683 69.1358 522.645C69.2027 522.607 69.2821 522.596 69.3572 522.614C69.4322 522.634 69.4962 522.681 69.5353 522.747C69.5743 522.812 69.5852 522.89 69.5656 522.964L58.1054 564.918C58.0888 564.979 58.052 565.033 58.0007 565.072C57.9494 565.11 57.8865 565.131 57.8218 565.131Z" fill="white"/>
<path d="M642.702 675H55.1771C55.0441 675 54.9166 674.948 54.8226 674.856C54.7286 674.765 54.6758 674.64 54.6758 674.51C54.6758 674.38 54.7286 674.256 54.8226 674.164C54.9166 674.072 55.0441 674.021 55.1771 674.021H642.702C642.835 674.021 642.962 674.072 643.056 674.164C643.15 674.256 643.203 674.38 643.203 674.51C643.203 674.64 643.15 674.765 643.056 674.856C642.962 674.948 642.835 675 642.702 675Z" fill="#292A2E"/>
<path d="M204.649 643.607C204.649 643.607 207.882 659.981 223.573 660.896C239.263 661.811 235.862 674.021 235.862 674.021H175.896V644.75L204.649 643.607Z" fill="#367CFF"/>
<path d="M171.83 344.934C171.83 344.934 176.314 340.013 176.275 351.178C176.127 392.823 173.25 654.057 173.25 654.057L212.656 653.734L236.526 343.242L171.83 344.934Z" fill="#262626"/>
<path d="M271.938 643.607C271.938 643.607 275.171 659.981 290.864 660.893C306.556 661.806 303.153 674.018 303.153 674.018H243.186V644.75L271.938 643.607Z" fill="#367CFF"/>
<path d="M279.56 348.169C279.56 348.169 284.483 490.503 283.972 497.46L279.343 652.977L240.588 653.677L234.339 491.832C234.339 491.832 230.243 447.189 219.201 405.733C213.551 384.456 210.152 362.669 209.055 340.715L279.56 348.169Z" fill="#262626"/>
<path d="M228.434 449.084L231.665 400.807C231.665 400.807 234.984 420.877 234.984 438.176C234.984 446.632 233.202 480.111 233.202 480.111L228.434 449.084Z" fill="#0A0A0A"/>
<path d="M171.402 344.931L171.273 344.938C171.273 344.938 171.368 342.511 171.402 344.931Z" fill="#333333"/>
<path d="M171.564 344.929L171.436 344.936C171.436 344.936 171.529 342.509 171.564 344.929Z" fill="#333333"/>
<path d="M387.496 229.402C387.259 228.943 386.882 228.567 386.416 228.326C385.951 228.085 385.42 227.992 384.898 228.058C384.903 228.013 384.893 227.967 384.869 227.928C384.845 227.897 384.813 227.874 384.776 227.859C384.74 227.844 384.7 227.839 384.66 227.845L386.423 226.611C386.95 226.258 387.33 225.731 387.49 225.126C387.65 224.522 387.581 223.881 387.295 223.323C386.995 222.78 386.499 222.365 385.903 222.159C385.308 221.954 384.655 221.972 384.072 222.209C384.077 222.185 384.06 222.162 384.057 222.14L384.781 221.633C385.276 221.299 385.638 220.808 385.805 220.243C385.972 219.678 385.935 219.074 385.699 218.533C385.543 218.196 385.314 217.898 385.026 217.659C384.738 217.421 384.4 217.247 384.036 217.151C383.671 217.055 383.289 217.04 382.918 217.106C382.546 217.171 382.194 217.317 381.888 217.531L380.217 218.702C380.212 218.692 380.217 218.681 380.21 218.672C380.204 218.663 380.185 218.659 380.176 218.649C380.56 218.228 380.785 217.691 380.816 217.128C380.846 216.564 380.68 216.008 380.344 215.549C379.556 214.309 377.735 214.563 376.654 215.319L366.82 221.955L368.578 219.064C368.931 218.508 369.055 217.841 368.925 217.199C368.795 216.556 368.421 215.986 367.878 215.602C367.59 215.414 367.266 215.285 366.926 215.223C366.585 215.162 366.235 215.168 365.898 215.243C365.56 215.318 365.241 215.459 364.961 215.658C364.681 215.857 364.445 216.109 364.269 216.4L354.673 232.184C353.546 234.036 353.204 236.244 353.717 238.338C354.231 240.433 355.56 242.249 357.423 243.401C359.583 244.738 362.103 245.413 364.659 245.342C367.215 245.27 369.691 244.454 371.769 242.999L386.62 232.6C387.113 232.241 387.468 231.73 387.628 231.15C387.787 230.569 387.74 229.953 387.496 229.402Z" fill="#E98862"/>
<g opacity="0.25">
<path opacity="0.25" d="M370.485 225.259C370.521 225.308 370.575 225.341 370.635 225.351C370.696 225.361 370.758 225.347 370.808 225.313L380.152 218.991C380.178 218.974 380.2 218.952 380.216 218.926C380.233 218.901 380.244 218.873 380.25 218.843C380.256 218.813 380.255 218.783 380.248 218.753C380.242 218.724 380.23 218.696 380.212 218.671C380.194 218.646 380.172 218.625 380.146 218.609C380.12 218.593 380.091 218.581 380.061 218.576C380.03 218.571 379.999 218.571 379.969 218.577C379.939 218.584 379.91 218.596 379.885 218.613L370.541 224.935C370.489 224.97 370.454 225.023 370.443 225.083C370.432 225.143 370.446 225.205 370.481 225.255L370.485 225.259Z" fill="#0C0C0C"/>
</g>
<g opacity="0.25">
<path opacity="0.25" d="M373.225 229.361C373.261 229.41 373.315 229.442 373.376 229.452C373.436 229.462 373.498 229.449 373.549 229.414L383.977 222.359C384.028 222.324 384.063 222.271 384.074 222.211C384.085 222.151 384.071 222.089 384.036 222.039C383.999 221.991 383.945 221.958 383.884 221.947C383.823 221.936 383.76 221.949 383.708 221.981L373.281 229.037C373.23 229.071 373.195 229.125 373.183 229.185C373.172 229.245 373.186 229.307 373.221 229.357L373.225 229.361Z" fill="#0C0C0C"/>
</g>
<g opacity="0.25">
<path opacity="0.25" d="M376.168 233.821C376.204 233.87 376.258 233.902 376.319 233.912C376.379 233.922 376.442 233.909 376.492 233.875L384.811 228.247C384.862 228.212 384.897 228.159 384.908 228.099C384.919 228.039 384.906 227.977 384.87 227.927C384.835 227.877 384.78 227.843 384.719 227.832C384.657 227.821 384.594 227.834 384.543 227.869L376.224 233.497C376.173 233.532 376.138 233.585 376.127 233.645C376.116 233.705 376.129 233.767 376.165 233.817L376.168 233.821Z" fill="#0C0C0C"/>
</g>
<path d="M349.009 228.59L320.824 275.484L286.432 231.416L257.869 256.571L306.645 318.282L306.964 318.721C308.916 321.333 311.518 323.417 314.522 324.776C317.527 326.134 320.836 326.723 324.138 326.487C327.44 326.251 330.627 325.198 333.397 323.426C336.167 321.654 338.429 319.223 339.972 316.361L380.052 245.455L349.009 228.59Z" fill="#367CFF"/>
<path d="M318.06 281.124C317.999 281.124 317.938 281.109 317.885 281.079C317.831 281.05 317.786 281.008 317.754 280.957C317.722 280.906 317.704 280.847 317.701 280.787C317.699 280.727 317.713 280.668 317.741 280.615L320.504 275.325C320.547 275.242 320.623 275.18 320.713 275.152C320.803 275.123 320.902 275.131 320.986 275.173C321.071 275.216 321.134 275.289 321.164 275.377C321.193 275.465 321.185 275.561 321.141 275.644L318.379 280.933C318.349 280.99 318.303 281.039 318.247 281.072C318.191 281.106 318.126 281.124 318.06 281.124Z" fill="#0C0C0C"/>
<path d="M284.446 275.216L283.586 290.027L284.301 290.067L285.161 275.255L284.446 275.216Z" fill="#0C0C0C"/>
<path d="M193.626 168.024C193.626 168.024 192.306 184.51 188.435 190.453C177.291 207.562 173.892 226.913 184.727 237.165C195.561 247.416 265.431 248.352 271.001 225.112C275.689 205.549 266.151 203.333 264.016 187.124C263.05 179.791 260.336 164.408 260.336 164.408" fill="#0A0A0A"/>
<path d="M253.214 221.397C253.094 221.381 251.755 243.077 225.954 241.187C208.093 239.879 201.723 221.366 201.314 221.366C203.24 220.966 206.483 220.387 207.339 219.939C210.151 218.463 213.631 216.926 214.538 211.591C215.061 208.512 214.174 192.782 214.447 189.67L241.864 195.649C241.481 202.22 238.8 217.455 248.198 220.151C249.762 220.597 251.446 221.007 253.214 221.397Z" fill="#E98862"/>
<path opacity="0.52" d="M242.249 213.927C241.819 212.575 241.543 211.181 241.424 209.77C241.122 206.55 241.182 203.308 241.603 200.101C236.03 199.366 230.781 197.119 226.45 193.615C225.941 195.452 223.141 203.479 223.916 205.223C225.381 208.523 232.268 213.927 242.249 213.927Z" fill="#0C0C0C"/>
<path d="M238.613 207.098C227.793 207.996 213.857 203.615 211.127 189.521L208.663 176.803C205.932 162.708 211.297 149.881 224.882 147.37C238.466 144.858 250.833 154.407 253.564 168.502L254.655 174.132C255.703 179.54 257.922 205.493 238.613 207.098Z" fill="#E98862"/>
<path d="M250.783 174.745C251.724 174.745 252.486 174 252.486 173.082C252.486 172.163 251.724 171.418 250.783 171.418C249.843 171.418 249.08 172.163 249.08 173.082C249.08 174 249.843 174.745 250.783 174.745Z" fill="#0C0C0C"/>
<path d="M233.338 177.023C234.278 177.023 235.041 176.278 235.041 175.359C235.041 174.44 234.278 173.695 233.338 173.695C232.397 173.695 231.635 174.44 231.635 175.359C231.635 176.278 232.397 177.023 233.338 177.023Z" fill="#0C0C0C"/>
<path opacity="0.52" d="M242.91 187.557L242.936 187.553C243.487 187.448 244.03 187.312 244.565 187.148C245.364 186.897 246.41 186.482 246.274 185.777C246.119 184.974 242.188 176.725 241.74 175.787C241.721 175.746 241.694 175.71 241.66 175.679C241.627 175.648 241.587 175.625 241.544 175.609C241.501 175.593 241.455 175.586 241.409 175.588C241.363 175.59 241.318 175.601 241.276 175.62C241.234 175.639 241.197 175.666 241.166 175.699C241.134 175.732 241.11 175.771 241.095 175.813C241.079 175.855 241.072 175.9 241.075 175.945C241.077 175.99 241.088 176.034 241.108 176.075C242.784 179.588 245.484 185.363 245.588 185.903C245.499 186.155 244.172 186.63 242.807 186.883C242.717 186.898 242.637 186.947 242.584 187.019C242.531 187.091 242.508 187.181 242.522 187.269C242.535 187.357 242.583 187.436 242.656 187.49C242.728 187.544 242.819 187.567 242.91 187.556V187.557Z" fill="#0C0C0C"/>
<path opacity="0.52" d="M240.899 193.639C243.115 193.358 245.232 192.572 247.08 191.345C247.158 191.296 247.212 191.218 247.231 191.13C247.25 191.041 247.232 190.949 247.182 190.873C247.131 190.798 247.052 190.745 246.962 190.726C246.871 190.707 246.777 190.725 246.699 190.774C242.7 193.319 238.727 193.731 235.208 191.963C235.137 191.926 235.064 191.892 234.989 191.861C234.902 191.831 234.806 191.835 234.722 191.873C234.638 191.912 234.574 191.981 234.542 192.066C234.511 192.151 234.515 192.245 234.555 192.327C234.594 192.409 234.665 192.472 234.752 192.503C234.779 192.514 234.824 192.538 234.889 192.573C236.739 193.504 238.832 193.876 240.899 193.639Z" fill="#0C0C0C"/>
<path d="M197.794 181.235L209.972 179.054C219.195 175.408 221.984 159.811 221.984 159.811C221.984 159.811 233.186 170.478 260.334 164.411C260.334 164.411 254.891 127.426 214.784 138.177C201.851 141.645 192.57 154.376 193.726 171.39C194.538 183.317 197.794 181.235 197.794 181.235Z" fill="#0A0A0A"/>
<path d="M212.803 193.659C208.675 194.422 204.492 190.727 203.708 186.693C202.924 182.66 205.843 179.818 209.971 179.055L212.621 181.363L216.349 193.003L212.803 193.659Z" fill="#E98862"/>
<path d="M244.229 169.044C245.433 168.284 246.824 167.855 248.257 167.802C248.962 167.771 249.668 167.844 250.351 168.018C251.027 168.188 251.679 168.44 252.291 168.769C252.377 168.81 252.443 168.883 252.474 168.972C252.506 169.061 252.5 169.158 252.458 169.243C252.416 169.327 252.342 169.392 252.251 169.424C252.161 169.455 252.061 169.45 251.974 169.41L251.948 169.398C251.383 169.127 250.784 168.926 250.167 168.8C249.558 168.672 248.932 168.636 248.311 168.691C247.079 168.792 245.897 169.209 244.884 169.901L244.851 169.924C244.793 169.966 244.727 169.996 244.657 170.012C244.587 170.028 244.514 170.031 244.443 170.02C244.372 170.009 244.304 169.985 244.242 169.948C244.181 169.911 244.128 169.863 244.085 169.806C244.043 169.749 244.012 169.685 243.996 169.617C243.979 169.548 243.976 169.477 243.987 169.408C243.998 169.338 244.024 169.272 244.061 169.212C244.099 169.152 244.148 169.1 244.206 169.058L244.229 169.044Z" fill="#0C0C0C"/>
<path d="M233.368 171.542C232.168 171.255 230.911 171.283 229.725 171.624C229.126 171.792 228.555 172.047 228.034 172.381C227.505 172.717 227.022 173.116 226.595 173.57L226.576 173.589C226.509 173.654 226.419 173.692 226.324 173.693C226.23 173.695 226.138 173.661 226.069 173.598C226 173.535 225.958 173.448 225.954 173.356C225.949 173.263 225.981 173.173 226.043 173.103C226.492 172.58 227.006 172.115 227.575 171.719C228.147 171.315 228.778 170.998 229.447 170.778C230.802 170.323 232.259 170.232 233.663 170.515C233.805 170.545 233.929 170.629 234.009 170.748C234.088 170.868 234.115 171.013 234.084 171.152C234.054 171.291 233.968 171.413 233.846 171.49C233.723 171.567 233.574 171.594 233.432 171.564L233.41 171.559L233.368 171.542Z" fill="#0C0C0C"/>
<path opacity="0.52" d="M241.371 196.839C241.772 196.795 242.169 196.717 242.557 196.606C242.646 196.581 242.721 196.523 242.766 196.444C242.811 196.365 242.821 196.271 242.796 196.185C242.77 196.098 242.71 196.024 242.629 195.98C242.548 195.937 242.453 195.926 242.364 195.951C240.029 196.608 238.701 195.741 238.646 195.7C238.57 195.648 238.476 195.628 238.385 195.644C238.293 195.66 238.212 195.71 238.159 195.784C238.106 195.859 238.085 195.95 238.101 196.04C238.117 196.129 238.169 196.208 238.245 196.26C239.187 196.8 240.292 197.005 241.371 196.839Z" fill="#0C0C0C"/>
<path d="M210 178.902L209.879 178.573C225.308 173.162 221.535 158.371 221.495 158.222L221.841 158.133C221.882 158.285 225.741 173.382 210 178.902Z" fill="#0C0C0C"/>
<path opacity="0.1" d="M231.906 188.538C233.687 188.351 235.016 187.165 234.876 185.888C234.735 184.612 233.177 183.729 231.396 183.917C229.616 184.104 228.286 185.29 228.427 186.567C228.567 187.843 230.125 188.726 231.906 188.538Z" fill="#0C0C0C"/>
<path opacity="0.1" d="M250.819 183.711C250.962 184.986 252.52 185.867 254.302 185.682C254.61 185.649 254.913 185.586 255.208 185.492C255.308 183.975 255.33 182.516 255.301 181.164C254.808 181.038 254.296 181.002 253.79 181.06C252.009 181.244 250.68 182.431 250.819 183.711Z" fill="#0C0C0C"/>
<path d="M285.271 269.163C284.458 278.49 280.505 336.68 279.723 348.168H176.335C175.726 337.807 168.698 292.498 166.391 272.236C164.189 252.901 159.869 243.221 163.035 237.505C168.21 228.163 182.351 222.764 191.993 221.489C197.881 220.711 206.736 220.152 206.736 220.152C206.736 220.152 207.485 234.969 225.364 235.794C249.702 236.914 248.077 220.152 248.197 220.152C252.14 220.152 274.664 222.59 280.175 225.781C295.188 234.468 286.996 249.401 285.271 269.163Z" fill="#367CFF"/>
<path d="M352.379 275.679L342.412 322.997C342.211 323.958 341.678 324.823 340.903 325.447C340.128 326.07 339.158 326.416 338.154 326.425L269.53 326.996C268.876 327.002 268.228 326.864 267.635 326.593C267.042 326.323 266.518 325.926 266.103 325.432C265.687 324.938 265.389 324.359 265.232 323.738C265.075 323.118 265.062 322.47 265.194 321.844L275.159 274.524C275.362 273.563 275.895 272.699 276.671 272.076C277.447 271.453 278.417 271.109 279.422 271.1L348.045 270.529C348.699 270.525 349.346 270.663 349.939 270.933C350.531 271.204 351.054 271.601 351.469 272.095C351.885 272.588 352.182 273.166 352.339 273.786C352.496 274.406 352.51 275.053 352.379 275.679Z" fill="#292A2E"/>
<path d="M288.39 309.289C288.426 309.913 288.231 310.527 287.84 311.021C287.45 311.515 286.889 311.854 286.263 311.976L284.15 312.431C284.188 312.443 284.222 312.464 284.25 312.492C284.277 312.52 284.297 312.554 284.308 312.592C284.313 312.635 284.303 312.68 284.279 312.717C284.787 312.857 285.238 313.147 285.569 313.549C285.9 313.95 286.095 314.442 286.127 314.956C286.13 315.556 285.926 316.139 285.548 316.611C285.169 317.083 284.639 317.417 284.043 317.559L266.204 321.427C265.292 321.627 264.36 321.728 263.426 321.728C261.343 321.728 259.293 321.233 257.45 320.286C255.607 319.339 254.028 317.968 252.848 316.292C251.597 314.519 251.104 312.339 251.473 310.216C251.842 308.093 253.045 306.194 254.825 304.924L270 294.088C270.334 293.849 270.722 293.693 271.131 293.633L269.735 300.258L270.107 300.174L270.186 300.16L281.823 297.844C283.119 297.564 284.895 298.026 285.124 299.467C285.247 300.019 285.175 300.595 284.92 301.102C284.666 301.609 284.243 302.016 283.721 302.259C283.728 302.266 283.742 302.273 283.742 302.287C283.742 302.301 283.735 302.308 283.735 302.322L285.747 301.888C286.115 301.808 286.497 301.809 286.865 301.891C287.233 301.973 287.577 302.133 287.874 302.361C288.17 302.588 288.412 302.877 288.58 303.207C288.749 303.536 288.84 303.898 288.848 304.266C288.848 304.855 288.64 305.424 288.259 305.88C287.878 306.335 287.347 306.647 286.757 306.764L285.89 306.953C285.883 306.981 285.89 307.009 285.876 307.03C286.508 307.034 287.115 307.268 287.579 307.686C288.044 308.104 288.333 308.675 288.39 309.289Z" fill="#E98862"/>
<g opacity="0.25">
<path opacity="0.25" d="M272.151 304.617C272.164 304.676 272.201 304.727 272.253 304.759C272.304 304.792 272.367 304.803 272.427 304.791L283.561 302.56C283.592 302.554 283.62 302.542 283.646 302.525C283.672 302.508 283.693 302.487 283.71 302.461C283.727 302.436 283.739 302.408 283.745 302.378C283.751 302.349 283.751 302.318 283.744 302.289C283.738 302.259 283.726 302.231 283.709 302.206C283.692 302.181 283.669 302.16 283.644 302.143C283.618 302.127 283.589 302.115 283.559 302.11C283.528 302.104 283.497 302.104 283.467 302.11L272.333 304.34C272.271 304.353 272.218 304.388 272.183 304.439C272.149 304.49 272.137 304.552 272.149 304.612L272.151 304.617Z" fill="#0C0C0C"/>
</g>
<g opacity="0.25">
<path opacity="0.25" d="M273.023 309.443C273.037 309.502 273.074 309.552 273.125 309.585C273.177 309.617 273.24 309.629 273.3 309.617L285.726 307.128C285.787 307.115 285.84 307.08 285.875 307.029C285.909 306.978 285.922 306.916 285.909 306.856C285.895 306.798 285.858 306.746 285.806 306.713C285.755 306.68 285.692 306.667 285.631 306.677L273.204 309.167C273.173 309.173 273.145 309.185 273.119 309.202C273.094 309.218 273.072 309.24 273.055 309.265C273.038 309.29 273.026 309.319 273.02 309.348C273.014 309.378 273.014 309.408 273.02 309.438L273.023 309.443Z" fill="#0C0C0C"/>
</g>
<g opacity="0.25">
<path opacity="0.25" d="M273.936 314.671C273.95 314.73 273.986 314.781 274.038 314.813C274.09 314.845 274.152 314.857 274.212 314.845L284.124 312.859C284.154 312.853 284.183 312.841 284.209 312.824C284.234 312.807 284.256 312.785 284.273 312.76C284.29 312.735 284.302 312.707 284.308 312.677C284.314 312.648 284.313 312.617 284.307 312.588C284.301 312.558 284.289 312.53 284.272 312.505C284.254 312.48 284.232 312.459 284.206 312.442C284.181 312.426 284.152 312.414 284.121 312.408C284.091 312.403 284.06 312.403 284.03 312.409L274.118 314.394C274.057 314.407 274.003 314.442 273.969 314.493C273.934 314.544 273.922 314.606 273.934 314.666L273.936 314.671Z" fill="#0C0C0C"/>
</g>
<path d="M265.099 328.323L168.318 345.409C165.298 345.729 162.244 345.362 159.394 344.336C156.544 343.309 153.976 341.652 151.892 339.493C149.807 337.334 148.264 334.733 147.381 331.894C146.499 329.055 146.302 326.054 146.806 323.128L160.35 244.455C160.777 241.966 161.702 239.584 163.071 237.444C164.441 235.304 166.228 233.449 168.332 231.985C170.436 230.52 172.815 229.475 175.332 228.909C177.849 228.343 180.456 228.267 183.004 228.686C185.551 229.105 187.989 230.01 190.178 231.349C192.368 232.689 194.265 234.437 195.763 236.493C197.26 238.549 198.328 240.874 198.906 243.333C199.483 245.793 199.559 248.34 199.128 250.828L189.89 304.986L260.845 296.281L265.099 328.323Z" fill="#367CFF"/>
<path d="M168.318 345.758C168.229 345.758 168.143 345.725 168.077 345.666C168.011 345.607 167.97 345.526 167.962 345.439C167.954 345.352 167.98 345.266 168.034 345.196C168.088 345.127 168.167 345.08 168.255 345.064L264.701 328.038L260.536 296.671L189.935 305.333C189.88 305.34 189.824 305.334 189.771 305.316C189.718 305.298 189.671 305.268 189.632 305.228C189.594 305.189 189.565 305.142 189.548 305.089C189.532 305.037 189.528 304.982 189.537 304.928L195.409 270.314C195.417 270.269 195.433 270.225 195.458 270.186C195.482 270.147 195.515 270.113 195.553 270.086C195.592 270.059 195.635 270.04 195.681 270.03C195.727 270.02 195.775 270.019 195.821 270.027C195.868 270.034 195.912 270.051 195.952 270.075C195.992 270.099 196.027 270.131 196.054 270.168C196.081 270.206 196.101 270.248 196.112 270.293C196.122 270.337 196.124 270.384 196.116 270.429L190.321 304.58L260.8 295.933C260.894 295.922 260.988 295.947 261.063 296.004C261.138 296.06 261.187 296.144 261.199 296.235L265.454 328.276C265.466 328.365 265.443 328.455 265.388 328.528C265.334 328.6 265.253 328.649 265.163 328.665L168.383 345.753C168.361 345.756 168.34 345.758 168.318 345.758Z" fill="#0C0C0C"/>
<path d="M189.835 304.642L183.609 305.615L183.723 306.307L189.948 305.333L189.835 304.642Z" fill="#0C0C0C"/>
<path d="M672.354 387.047H460.556C451.759 387.047 444.627 394.014 444.627 402.608V473.452C444.627 482.046 451.759 489.013 460.556 489.013H672.354C681.152 489.013 688.284 482.046 688.284 473.452V402.608C688.284 394.014 681.152 387.047 672.354 387.047Z" fill="white"/>
<path opacity="0.4" d="M672.354 387.047H460.556C451.759 387.047 444.627 394.014 444.627 402.608V473.452C444.627 482.046 451.759 489.013 460.556 489.013H672.354C681.152 489.013 688.284 482.046 688.284 473.452V402.608C688.284 394.014 681.152 387.047 672.354 387.047Z" fill="#367CFF"/>
<path d="M672.353 489.709H460.556C456.143 489.704 451.912 487.989 448.791 484.94C445.671 481.892 443.915 477.759 443.91 473.448V402.611C443.915 398.3 445.671 394.166 448.791 391.118C451.912 388.069 456.143 386.355 460.556 386.35H672.353C676.767 386.355 680.997 388.069 684.118 391.118C687.239 394.166 688.994 398.3 688.999 402.611V473.45C688.993 477.761 687.238 481.894 684.117 484.941C680.997 487.989 676.766 489.704 672.353 489.709ZM460.556 387.746C456.522 387.75 452.655 389.318 449.802 392.105C446.95 394.892 445.346 398.67 445.342 402.611V473.45C445.348 477.39 446.952 481.167 449.804 483.953C452.656 486.738 456.523 488.305 460.556 488.31H672.353C676.387 488.305 680.254 486.738 683.106 483.952C685.958 481.166 687.562 477.388 687.567 473.448V402.611C687.562 398.67 685.958 394.893 683.106 392.107C680.254 389.32 676.387 387.753 672.353 387.749L460.556 387.746Z" fill="#292A2E"/>
<path d="M466.475 467.285C466.282 467.285 466.092 467.235 465.927 467.139C465.761 467.042 465.624 466.904 465.532 466.739C465.439 466.574 465.394 466.387 465.401 466.199C465.408 466.01 465.467 465.827 465.571 465.669C465.804 465.319 489.211 430.354 526.41 430.354C545.847 430.354 557.623 437.681 569.013 444.766C579.556 451.325 589.514 457.521 604.923 457.521C636.428 457.521 661.807 412.824 662.059 412.372C662.196 412.128 662.426 411.947 662.7 411.869C662.973 411.79 663.267 411.821 663.517 411.955C663.767 412.088 663.953 412.313 664.033 412.58C664.113 412.848 664.081 413.135 663.945 413.379C662.888 415.268 637.689 459.622 604.923 459.622C588.888 459.622 578.673 453.266 567.859 446.539C556.729 439.613 545.221 432.455 526.41 432.455C490.4 432.455 467.605 466.461 467.379 466.804C467.282 466.952 467.148 467.073 466.99 467.158C466.832 467.242 466.655 467.286 466.475 467.285Z" fill="white"/>
<path d="M663.303 416.985C665.625 416.985 667.507 415.146 667.507 412.878C667.507 410.61 665.625 408.771 663.303 408.771C660.982 408.771 659.1 410.61 659.1 412.878C659.1 415.146 660.982 416.985 663.303 416.985Z" fill="white"/>
</svg>
